<mxfile host="Electron" modified="2024-02-25T08:13:08.962Z" agent="Mozilla/5.0 (X11; Linux x86_64) AppleWebKit/537.36 (KHTML, like Gecko) draw.io/23.1.5 Chrome/120.0.6099.109 Electron/28.1.0 Safari/537.36" etag="fylMlSvjLyt1z5GbzEB4" version="23.1.5" type="device">
  <diagram name="Page-1" id="2YBvvXClWsGukQMizWep">
    <mxGraphModel dx="2952" dy="1242" grid="1" gridSize="10" guides="1" tooltips="1" connect="1" arrows="1" fold="1" page="1" pageScale="1" pageWidth="850" pageHeight="1100" math="0" shadow="0">
      <root>
        <mxCell id="0" />
        <mxCell id="1" parent="0" visible="0" />
        <mxCell id="LlVcsMAfbAlEh-ZR9LT1-41" value="Before" parent="0" />
        <mxCell id="LlVcsMAfbAlEh-ZR9LT1-47" value="" style="group" vertex="1" connectable="0" parent="LlVcsMAfbAlEh-ZR9LT1-41">
          <mxGeometry x="460" y="820" width="190" height="130" as="geometry" />
        </mxCell>
        <mxCell id="LlVcsMAfbAlEh-ZR9LT1-48" value="&lt;font style=&quot;font-size: 24px;&quot;&gt;BareMetal Node&lt;/font&gt;" style="rounded=1;whiteSpace=wrap;html=1;" vertex="1" parent="LlVcsMAfbAlEh-ZR9LT1-47">
          <mxGeometry width="190" height="130" as="geometry" />
        </mxCell>
        <mxCell id="LlVcsMAfbAlEh-ZR9LT1-55" style="edgeStyle=orthogonalEdgeStyle;rounded=0;orthogonalLoop=1;jettySize=auto;html=1;entryX=0;entryY=0.5;entryDx=0;entryDy=0;" edge="1" parent="LlVcsMAfbAlEh-ZR9LT1-41" source="LlVcsMAfbAlEh-ZR9LT1-16" target="LlVcsMAfbAlEh-ZR9LT1-48">
          <mxGeometry relative="1" as="geometry" />
        </mxCell>
        <mxCell id="LlVcsMAfbAlEh-ZR9LT1-60" style="edgeStyle=orthogonalEdgeStyle;rounded=0;orthogonalLoop=1;jettySize=auto;html=1;entryX=0.5;entryY=1;entryDx=0;entryDy=0;" edge="1" parent="LlVcsMAfbAlEh-ZR9LT1-41" source="LlVcsMAfbAlEh-ZR9LT1-48" target="LlVcsMAfbAlEh-ZR9LT1-26">
          <mxGeometry relative="1" as="geometry">
            <Array as="points">
              <mxPoint x="555" y="720" />
              <mxPoint x="625" y="720" />
            </Array>
          </mxGeometry>
        </mxCell>
        <mxCell id="LlVcsMAfbAlEh-ZR9LT1-5" value="Bootstrap Cluster" style="swimlane;whiteSpace=wrap;html=1;startSize=23;" vertex="1" parent="LlVcsMAfbAlEh-ZR9LT1-41">
          <mxGeometry x="80" y="40" width="690" height="710" as="geometry" />
        </mxCell>
        <mxCell id="LlVcsMAfbAlEh-ZR9LT1-16" value="&lt;font style=&quot;font-size: 24px;&quot;&gt;Ironic&lt;/font&gt;" style="rounded=0;whiteSpace=wrap;html=1;" vertex="1" parent="LlVcsMAfbAlEh-ZR9LT1-5">
          <mxGeometry x="280" y="620" width="120" height="60" as="geometry" />
        </mxCell>
        <mxCell id="LlVcsMAfbAlEh-ZR9LT1-57" style="edgeStyle=orthogonalEdgeStyle;rounded=0;orthogonalLoop=1;jettySize=auto;html=1;entryX=0.5;entryY=0;entryDx=0;entryDy=0;" edge="1" parent="LlVcsMAfbAlEh-ZR9LT1-5" source="LlVcsMAfbAlEh-ZR9LT1-17" target="LlVcsMAfbAlEh-ZR9LT1-16">
          <mxGeometry relative="1" as="geometry" />
        </mxCell>
        <mxCell id="LlVcsMAfbAlEh-ZR9LT1-61" style="edgeStyle=orthogonalEdgeStyle;rounded=0;orthogonalLoop=1;jettySize=auto;html=1;" edge="1" parent="LlVcsMAfbAlEh-ZR9LT1-5" source="LlVcsMAfbAlEh-ZR9LT1-17" target="LlVcsMAfbAlEh-ZR9LT1-25">
          <mxGeometry relative="1" as="geometry">
            <Array as="points">
              <mxPoint x="145" y="400" />
            </Array>
          </mxGeometry>
        </mxCell>
        <mxCell id="LlVcsMAfbAlEh-ZR9LT1-62" style="edgeStyle=orthogonalEdgeStyle;rounded=0;orthogonalLoop=1;jettySize=auto;html=1;" edge="1" parent="LlVcsMAfbAlEh-ZR9LT1-5" source="LlVcsMAfbAlEh-ZR9LT1-17" target="LlVcsMAfbAlEh-ZR9LT1-26">
          <mxGeometry relative="1" as="geometry" />
        </mxCell>
        <mxCell id="LlVcsMAfbAlEh-ZR9LT1-17" value="&lt;font style=&quot;font-size: 24px;&quot;&gt;BareMetal Operator&lt;/font&gt;" style="rounded=0;whiteSpace=wrap;html=1;" vertex="1" parent="LlVcsMAfbAlEh-ZR9LT1-5">
          <mxGeometry x="215" y="360" width="260" height="90" as="geometry" />
        </mxCell>
        <mxCell id="LlVcsMAfbAlEh-ZR9LT1-25" value="&lt;font style=&quot;font-size: 18px;&quot;&gt;BareMetal Host&lt;/font&gt;" style="ellipse;shape=umlEntity;whiteSpace=wrap;html=1;" vertex="1" parent="LlVcsMAfbAlEh-ZR9LT1-5">
          <mxGeometry x="80" y="510" width="130" height="130" as="geometry" />
        </mxCell>
        <mxCell id="LlVcsMAfbAlEh-ZR9LT1-26" value="&lt;font style=&quot;font-size: 18px;&quot;&gt;BareMetal Host&lt;/font&gt;" style="ellipse;shape=umlEntity;whiteSpace=wrap;html=1;" vertex="1" parent="LlVcsMAfbAlEh-ZR9LT1-5">
          <mxGeometry x="480" y="510" width="130" height="130" as="geometry" />
        </mxCell>
        <mxCell id="LlVcsMAfbAlEh-ZR9LT1-44" style="edgeStyle=orthogonalEdgeStyle;rounded=0;orthogonalLoop=1;jettySize=auto;html=1;entryX=0.5;entryY=0;entryDx=0;entryDy=0;" edge="1" parent="LlVcsMAfbAlEh-ZR9LT1-5" source="LlVcsMAfbAlEh-ZR9LT1-42" target="LlVcsMAfbAlEh-ZR9LT1-43">
          <mxGeometry relative="1" as="geometry" />
        </mxCell>
        <mxCell id="LlVcsMAfbAlEh-ZR9LT1-42" value="&lt;font style=&quot;font-size: 24px;&quot;&gt;CAPI Controller&lt;/font&gt;" style="rounded=0;whiteSpace=wrap;html=1;" vertex="1" parent="LlVcsMAfbAlEh-ZR9LT1-5">
          <mxGeometry x="200" y="60" width="260" height="90" as="geometry" />
        </mxCell>
        <mxCell id="LlVcsMAfbAlEh-ZR9LT1-43" value="&lt;font style=&quot;font-size: 24px;&quot;&gt;CAPM3 Controller&lt;/font&gt;" style="rounded=0;whiteSpace=wrap;html=1;" vertex="1" parent="LlVcsMAfbAlEh-ZR9LT1-5">
          <mxGeometry x="200" y="210" width="260" height="90" as="geometry" />
        </mxCell>
        <mxCell id="LlVcsMAfbAlEh-ZR9LT1-45" style="edgeStyle=orthogonalEdgeStyle;rounded=0;orthogonalLoop=1;jettySize=auto;html=1;entryX=0.442;entryY=0.033;entryDx=0;entryDy=0;entryPerimeter=0;" edge="1" parent="LlVcsMAfbAlEh-ZR9LT1-5" source="LlVcsMAfbAlEh-ZR9LT1-43" target="LlVcsMAfbAlEh-ZR9LT1-17">
          <mxGeometry relative="1" as="geometry" />
        </mxCell>
        <mxCell id="LlVcsMAfbAlEh-ZR9LT1-46" value="Request" style="text;html=1;align=center;verticalAlign=middle;whiteSpace=wrap;rounded=0;" vertex="1" parent="LlVcsMAfbAlEh-ZR9LT1-5">
          <mxGeometry x="330" y="310" width="60" height="30" as="geometry" />
        </mxCell>
        <mxCell id="LlVcsMAfbAlEh-ZR9LT1-36" style="edgeStyle=orthogonalEdgeStyle;rounded=0;orthogonalLoop=1;jettySize=auto;html=1;entryX=0.5;entryY=1;entryDx=0;entryDy=0;" edge="1" parent="LlVcsMAfbAlEh-ZR9LT1-41" source="LlVcsMAfbAlEh-ZR9LT1-9" target="LlVcsMAfbAlEh-ZR9LT1-25">
          <mxGeometry relative="1" as="geometry">
            <Array as="points">
              <mxPoint x="265" y="720" />
              <mxPoint x="225" y="720" />
            </Array>
          </mxGeometry>
        </mxCell>
        <mxCell id="LlVcsMAfbAlEh-ZR9LT1-9" value="&lt;font style=&quot;font-size: 24px;&quot;&gt;BareMetal Node&lt;/font&gt;" style="rounded=1;whiteSpace=wrap;html=1;" vertex="1" parent="LlVcsMAfbAlEh-ZR9LT1-41">
          <mxGeometry x="170" y="820" width="190" height="130" as="geometry" />
        </mxCell>
        <mxCell id="LlVcsMAfbAlEh-ZR9LT1-54" style="edgeStyle=orthogonalEdgeStyle;rounded=0;orthogonalLoop=1;jettySize=auto;html=1;entryX=1;entryY=0.5;entryDx=0;entryDy=0;" edge="1" parent="LlVcsMAfbAlEh-ZR9LT1-41" source="LlVcsMAfbAlEh-ZR9LT1-16" target="LlVcsMAfbAlEh-ZR9LT1-9">
          <mxGeometry relative="1" as="geometry" />
        </mxCell>
        <mxCell id="LlVcsMAfbAlEh-ZR9LT1-64" value="After" visible="0" parent="0" />
        <mxCell id="LlVcsMAfbAlEh-ZR9LT1-65" value="" style="group" vertex="1" connectable="0" parent="LlVcsMAfbAlEh-ZR9LT1-64">
          <mxGeometry x="480" y="820" width="190" height="130" as="geometry" />
        </mxCell>
        <mxCell id="LlVcsMAfbAlEh-ZR9LT1-66" value="&lt;span style=&quot;font-size: 24px;&quot;&gt;(Metal3) Worker&lt;/span&gt;" style="rounded=1;whiteSpace=wrap;html=1;" vertex="1" parent="LlVcsMAfbAlEh-ZR9LT1-65">
          <mxGeometry width="190" height="130" as="geometry" />
        </mxCell>
        <mxCell id="LlVcsMAfbAlEh-ZR9LT1-67" style="edgeStyle=orthogonalEdgeStyle;rounded=0;orthogonalLoop=1;jettySize=auto;html=1;entryX=0;entryY=0.5;entryDx=0;entryDy=0;" edge="1" parent="LlVcsMAfbAlEh-ZR9LT1-64" source="LlVcsMAfbAlEh-ZR9LT1-70" target="LlVcsMAfbAlEh-ZR9LT1-66">
          <mxGeometry relative="1" as="geometry" />
        </mxCell>
        <mxCell id="LlVcsMAfbAlEh-ZR9LT1-68" style="edgeStyle=orthogonalEdgeStyle;rounded=0;orthogonalLoop=1;jettySize=auto;html=1;entryX=0.5;entryY=1;entryDx=0;entryDy=0;" edge="1" parent="LlVcsMAfbAlEh-ZR9LT1-64" source="LlVcsMAfbAlEh-ZR9LT1-66" target="LlVcsMAfbAlEh-ZR9LT1-76">
          <mxGeometry relative="1" as="geometry">
            <Array as="points">
              <mxPoint x="555" y="720" />
              <mxPoint x="625" y="720" />
            </Array>
          </mxGeometry>
        </mxCell>
        <mxCell id="LlVcsMAfbAlEh-ZR9LT1-69" value="Bootstrap Cluster" style="swimlane;whiteSpace=wrap;html=1;startSize=23;" vertex="1" parent="LlVcsMAfbAlEh-ZR9LT1-64">
          <mxGeometry x="80" y="40" width="690" height="710" as="geometry" />
        </mxCell>
        <mxCell id="LlVcsMAfbAlEh-ZR9LT1-70" value="&lt;font style=&quot;font-size: 24px;&quot;&gt;Ironic&lt;/font&gt;" style="rounded=0;whiteSpace=wrap;html=1;" vertex="1" parent="LlVcsMAfbAlEh-ZR9LT1-69">
          <mxGeometry x="280" y="620" width="120" height="60" as="geometry" />
        </mxCell>
        <mxCell id="LlVcsMAfbAlEh-ZR9LT1-71" style="edgeStyle=orthogonalEdgeStyle;rounded=0;orthogonalLoop=1;jettySize=auto;html=1;entryX=0.5;entryY=0;entryDx=0;entryDy=0;" edge="1" parent="LlVcsMAfbAlEh-ZR9LT1-69" source="LlVcsMAfbAlEh-ZR9LT1-74" target="LlVcsMAfbAlEh-ZR9LT1-70">
          <mxGeometry relative="1" as="geometry" />
        </mxCell>
        <mxCell id="LlVcsMAfbAlEh-ZR9LT1-72" style="edgeStyle=orthogonalEdgeStyle;rounded=0;orthogonalLoop=1;jettySize=auto;html=1;" edge="1" parent="LlVcsMAfbAlEh-ZR9LT1-69" source="LlVcsMAfbAlEh-ZR9LT1-74" target="LlVcsMAfbAlEh-ZR9LT1-75">
          <mxGeometry relative="1" as="geometry">
            <Array as="points">
              <mxPoint x="145" y="400" />
            </Array>
          </mxGeometry>
        </mxCell>
        <mxCell id="LlVcsMAfbAlEh-ZR9LT1-73" style="edgeStyle=orthogonalEdgeStyle;rounded=0;orthogonalLoop=1;jettySize=auto;html=1;" edge="1" parent="LlVcsMAfbAlEh-ZR9LT1-69" source="LlVcsMAfbAlEh-ZR9LT1-74" target="LlVcsMAfbAlEh-ZR9LT1-76">
          <mxGeometry relative="1" as="geometry" />
        </mxCell>
        <mxCell id="LlVcsMAfbAlEh-ZR9LT1-74" value="&lt;font style=&quot;font-size: 24px;&quot;&gt;BareMetal Operator&lt;/font&gt;" style="rounded=0;whiteSpace=wrap;html=1;" vertex="1" parent="LlVcsMAfbAlEh-ZR9LT1-69">
          <mxGeometry x="215" y="360" width="260" height="90" as="geometry" />
        </mxCell>
        <mxCell id="LlVcsMAfbAlEh-ZR9LT1-75" value="&lt;font style=&quot;font-size: 18px;&quot;&gt;BareMetal Host&lt;/font&gt;" style="ellipse;shape=umlEntity;whiteSpace=wrap;html=1;" vertex="1" parent="LlVcsMAfbAlEh-ZR9LT1-69">
          <mxGeometry x="80" y="510" width="130" height="130" as="geometry" />
        </mxCell>
        <mxCell id="LlVcsMAfbAlEh-ZR9LT1-76" value="&lt;font style=&quot;font-size: 18px;&quot;&gt;BareMetal Host&lt;/font&gt;" style="ellipse;shape=umlEntity;whiteSpace=wrap;html=1;" vertex="1" parent="LlVcsMAfbAlEh-ZR9LT1-69">
          <mxGeometry x="480" y="510" width="130" height="130" as="geometry" />
        </mxCell>
        <mxCell id="LlVcsMAfbAlEh-ZR9LT1-77" style="edgeStyle=orthogonalEdgeStyle;rounded=0;orthogonalLoop=1;jettySize=auto;html=1;entryX=0.5;entryY=0;entryDx=0;entryDy=0;" edge="1" parent="LlVcsMAfbAlEh-ZR9LT1-69" source="LlVcsMAfbAlEh-ZR9LT1-78" target="LlVcsMAfbAlEh-ZR9LT1-79">
          <mxGeometry relative="1" as="geometry" />
        </mxCell>
        <mxCell id="LlVcsMAfbAlEh-ZR9LT1-78" value="&lt;font style=&quot;font-size: 24px;&quot;&gt;CAPI Controller&lt;/font&gt;" style="rounded=0;whiteSpace=wrap;html=1;" vertex="1" parent="LlVcsMAfbAlEh-ZR9LT1-69">
          <mxGeometry x="200" y="60" width="260" height="90" as="geometry" />
        </mxCell>
        <mxCell id="LlVcsMAfbAlEh-ZR9LT1-79" value="&lt;font style=&quot;font-size: 24px;&quot;&gt;CAPM3 Controller&lt;/font&gt;" style="rounded=0;whiteSpace=wrap;html=1;" vertex="1" parent="LlVcsMAfbAlEh-ZR9LT1-69">
          <mxGeometry x="200" y="210" width="260" height="90" as="geometry" />
        </mxCell>
        <mxCell id="LlVcsMAfbAlEh-ZR9LT1-80" style="edgeStyle=orthogonalEdgeStyle;rounded=0;orthogonalLoop=1;jettySize=auto;html=1;entryX=0.442;entryY=0.033;entryDx=0;entryDy=0;entryPerimeter=0;" edge="1" parent="LlVcsMAfbAlEh-ZR9LT1-69" source="LlVcsMAfbAlEh-ZR9LT1-79" target="LlVcsMAfbAlEh-ZR9LT1-74">
          <mxGeometry relative="1" as="geometry" />
        </mxCell>
        <mxCell id="LlVcsMAfbAlEh-ZR9LT1-81" value="Request" style="text;html=1;align=center;verticalAlign=middle;whiteSpace=wrap;rounded=0;" vertex="1" parent="LlVcsMAfbAlEh-ZR9LT1-69">
          <mxGeometry x="330" y="310" width="60" height="30" as="geometry" />
        </mxCell>
        <mxCell id="LlVcsMAfbAlEh-ZR9LT1-82" style="edgeStyle=orthogonalEdgeStyle;rounded=0;orthogonalLoop=1;jettySize=auto;html=1;entryX=0.5;entryY=1;entryDx=0;entryDy=0;" edge="1" parent="LlVcsMAfbAlEh-ZR9LT1-64" source="LlVcsMAfbAlEh-ZR9LT1-83" target="LlVcsMAfbAlEh-ZR9LT1-75">
          <mxGeometry relative="1" as="geometry">
            <Array as="points">
              <mxPoint x="265" y="720" />
              <mxPoint x="225" y="720" />
            </Array>
          </mxGeometry>
        </mxCell>
        <mxCell id="LlVcsMAfbAlEh-ZR9LT1-86" style="edgeStyle=orthogonalEdgeStyle;rounded=0;orthogonalLoop=1;jettySize=auto;html=1;" edge="1" parent="LlVcsMAfbAlEh-ZR9LT1-64" source="LlVcsMAfbAlEh-ZR9LT1-83" target="LlVcsMAfbAlEh-ZR9LT1-66">
          <mxGeometry relative="1" as="geometry" />
        </mxCell>
        <mxCell id="LlVcsMAfbAlEh-ZR9LT1-83" value="&lt;font style=&quot;font-size: 24px;&quot;&gt;(Metal3) CP&lt;/font&gt;" style="rounded=1;whiteSpace=wrap;html=1;" vertex="1" parent="LlVcsMAfbAlEh-ZR9LT1-64">
          <mxGeometry x="170" y="820" width="190" height="130" as="geometry" />
        </mxCell>
        <mxCell id="LlVcsMAfbAlEh-ZR9LT1-84" style="edgeStyle=orthogonalEdgeStyle;rounded=0;orthogonalLoop=1;jettySize=auto;html=1;entryX=1;entryY=0.5;entryDx=0;entryDy=0;" edge="1" parent="LlVcsMAfbAlEh-ZR9LT1-64" source="LlVcsMAfbAlEh-ZR9LT1-70" target="LlVcsMAfbAlEh-ZR9LT1-83">
          <mxGeometry relative="1" as="geometry" />
        </mxCell>
        <mxCell id="LlVcsMAfbAlEh-ZR9LT1-85" value="Cluster" style="swimlane;whiteSpace=wrap;html=1;" vertex="1" parent="LlVcsMAfbAlEh-ZR9LT1-64">
          <mxGeometry x="80" y="780" width="690" height="200" as="geometry" />
        </mxCell>
        <mxCell id="LlVcsMAfbAlEh-ZR9LT1-108" value="Kamaji Before" visible="0" parent="0" />
        <mxCell id="LlVcsMAfbAlEh-ZR9LT1-109" value="" style="group" vertex="1" connectable="0" parent="LlVcsMAfbAlEh-ZR9LT1-108">
          <mxGeometry x="610" y="1000" width="190" height="130" as="geometry" />
        </mxCell>
        <mxCell id="LlVcsMAfbAlEh-ZR9LT1-110" value="&lt;font style=&quot;font-size: 24px;&quot;&gt;BareMetal Node&lt;/font&gt;" style="rounded=1;whiteSpace=wrap;html=1;" vertex="1" parent="LlVcsMAfbAlEh-ZR9LT1-109">
          <mxGeometry width="190" height="130" as="geometry" />
        </mxCell>
        <mxCell id="LlVcsMAfbAlEh-ZR9LT1-113" value="Bootstrap Cluster" style="swimlane;whiteSpace=wrap;html=1;startSize=23;" vertex="1" parent="LlVcsMAfbAlEh-ZR9LT1-108">
          <mxGeometry x="10" y="40" width="830" height="930" as="geometry" />
        </mxCell>
        <mxCell id="LlVcsMAfbAlEh-ZR9LT1-114" value="&lt;font style=&quot;font-size: 24px;&quot;&gt;Ironic&lt;/font&gt;" style="rounded=0;whiteSpace=wrap;html=1;" vertex="1" parent="LlVcsMAfbAlEh-ZR9LT1-113">
          <mxGeometry x="270" y="590" width="120" height="60" as="geometry" />
        </mxCell>
        <mxCell id="LlVcsMAfbAlEh-ZR9LT1-115" style="edgeStyle=orthogonalEdgeStyle;rounded=0;orthogonalLoop=1;jettySize=auto;html=1;entryX=0.5;entryY=0;entryDx=0;entryDy=0;" edge="1" parent="LlVcsMAfbAlEh-ZR9LT1-113" source="LlVcsMAfbAlEh-ZR9LT1-118" target="LlVcsMAfbAlEh-ZR9LT1-114">
          <mxGeometry relative="1" as="geometry" />
        </mxCell>
        <mxCell id="LlVcsMAfbAlEh-ZR9LT1-116" style="edgeStyle=orthogonalEdgeStyle;rounded=0;orthogonalLoop=1;jettySize=auto;html=1;" edge="1" parent="LlVcsMAfbAlEh-ZR9LT1-113" source="LlVcsMAfbAlEh-ZR9LT1-118" target="LlVcsMAfbAlEh-ZR9LT1-119">
          <mxGeometry relative="1" as="geometry">
            <Array as="points">
              <mxPoint x="145" y="400" />
            </Array>
          </mxGeometry>
        </mxCell>
        <mxCell id="LlVcsMAfbAlEh-ZR9LT1-117" style="edgeStyle=orthogonalEdgeStyle;rounded=0;orthogonalLoop=1;jettySize=auto;html=1;" edge="1" parent="LlVcsMAfbAlEh-ZR9LT1-113" source="LlVcsMAfbAlEh-ZR9LT1-118" target="LlVcsMAfbAlEh-ZR9LT1-120">
          <mxGeometry relative="1" as="geometry" />
        </mxCell>
        <mxCell id="LlVcsMAfbAlEh-ZR9LT1-118" value="&lt;font style=&quot;font-size: 24px;&quot;&gt;BareMetal Operator&lt;/font&gt;" style="rounded=0;whiteSpace=wrap;html=1;" vertex="1" parent="LlVcsMAfbAlEh-ZR9LT1-113">
          <mxGeometry x="200" y="370" width="260" height="90" as="geometry" />
        </mxCell>
        <mxCell id="LlVcsMAfbAlEh-ZR9LT1-119" value="&lt;font style=&quot;font-size: 18px;&quot;&gt;BareMetal Host&lt;/font&gt;" style="ellipse;shape=umlEntity;whiteSpace=wrap;html=1;" vertex="1" parent="LlVcsMAfbAlEh-ZR9LT1-113">
          <mxGeometry x="80" y="510" width="130" height="130" as="geometry" />
        </mxCell>
        <mxCell id="LlVcsMAfbAlEh-ZR9LT1-120" value="&lt;font style=&quot;font-size: 18px;&quot;&gt;BareMetal Host&lt;/font&gt;" style="ellipse;shape=umlEntity;whiteSpace=wrap;html=1;" vertex="1" parent="LlVcsMAfbAlEh-ZR9LT1-113">
          <mxGeometry x="415" y="530" width="130" height="130" as="geometry" />
        </mxCell>
        <mxCell id="LlVcsMAfbAlEh-ZR9LT1-121" style="edgeStyle=orthogonalEdgeStyle;rounded=0;orthogonalLoop=1;jettySize=auto;html=1;entryX=0.5;entryY=0;entryDx=0;entryDy=0;" edge="1" parent="LlVcsMAfbAlEh-ZR9LT1-113" source="LlVcsMAfbAlEh-ZR9LT1-122" target="LlVcsMAfbAlEh-ZR9LT1-123">
          <mxGeometry relative="1" as="geometry" />
        </mxCell>
        <mxCell id="LlVcsMAfbAlEh-ZR9LT1-134" style="edgeStyle=orthogonalEdgeStyle;rounded=0;orthogonalLoop=1;jettySize=auto;html=1;" edge="1" parent="LlVcsMAfbAlEh-ZR9LT1-113" source="LlVcsMAfbAlEh-ZR9LT1-122" target="LlVcsMAfbAlEh-ZR9LT1-133">
          <mxGeometry relative="1" as="geometry">
            <Array as="points">
              <mxPoint x="380" y="170" />
              <mxPoint x="650" y="170" />
            </Array>
          </mxGeometry>
        </mxCell>
        <mxCell id="LlVcsMAfbAlEh-ZR9LT1-122" value="&lt;font style=&quot;font-size: 24px;&quot;&gt;CAPI Controller&lt;/font&gt;" style="rounded=0;whiteSpace=wrap;html=1;" vertex="1" parent="LlVcsMAfbAlEh-ZR9LT1-113">
          <mxGeometry x="250" y="60" width="260" height="90" as="geometry" />
        </mxCell>
        <mxCell id="LlVcsMAfbAlEh-ZR9LT1-123" value="&lt;font style=&quot;font-size: 24px;&quot;&gt;CAPM3 Controller&lt;/font&gt;" style="rounded=0;whiteSpace=wrap;html=1;" vertex="1" parent="LlVcsMAfbAlEh-ZR9LT1-113">
          <mxGeometry x="80" y="210" width="260" height="90" as="geometry" />
        </mxCell>
        <mxCell id="LlVcsMAfbAlEh-ZR9LT1-124" style="edgeStyle=orthogonalEdgeStyle;rounded=0;orthogonalLoop=1;jettySize=auto;html=1;entryX=0.442;entryY=0.033;entryDx=0;entryDy=0;entryPerimeter=0;" edge="1" parent="LlVcsMAfbAlEh-ZR9LT1-113" source="LlVcsMAfbAlEh-ZR9LT1-123" target="LlVcsMAfbAlEh-ZR9LT1-118">
          <mxGeometry relative="1" as="geometry" />
        </mxCell>
        <mxCell id="LlVcsMAfbAlEh-ZR9LT1-125" value="Request" style="text;html=1;align=center;verticalAlign=middle;whiteSpace=wrap;rounded=0;" vertex="1" parent="LlVcsMAfbAlEh-ZR9LT1-113">
          <mxGeometry x="220" y="310" width="60" height="30" as="geometry" />
        </mxCell>
        <mxCell id="LlVcsMAfbAlEh-ZR9LT1-158" style="edgeStyle=orthogonalEdgeStyle;rounded=0;orthogonalLoop=1;jettySize=auto;html=1;entryX=0.5;entryY=0;entryDx=0;entryDy=0;" edge="1" parent="LlVcsMAfbAlEh-ZR9LT1-113" source="LlVcsMAfbAlEh-ZR9LT1-133" target="LlVcsMAfbAlEh-ZR9LT1-157">
          <mxGeometry relative="1" as="geometry">
            <Array as="points">
              <mxPoint x="600" y="810" />
              <mxPoint x="725" y="810" />
            </Array>
          </mxGeometry>
        </mxCell>
        <mxCell id="LlVcsMAfbAlEh-ZR9LT1-159" style="edgeStyle=orthogonalEdgeStyle;rounded=0;orthogonalLoop=1;jettySize=auto;html=1;" edge="1" parent="LlVcsMAfbAlEh-ZR9LT1-113" source="LlVcsMAfbAlEh-ZR9LT1-133" target="LlVcsMAfbAlEh-ZR9LT1-137">
          <mxGeometry relative="1" as="geometry">
            <Array as="points">
              <mxPoint x="600" y="815" />
            </Array>
          </mxGeometry>
        </mxCell>
        <mxCell id="LlVcsMAfbAlEh-ZR9LT1-133" value="&lt;font style=&quot;font-size: 24px;&quot;&gt;Kamaji Components&lt;/font&gt;" style="rounded=0;whiteSpace=wrap;html=1;" vertex="1" parent="LlVcsMAfbAlEh-ZR9LT1-113">
          <mxGeometry x="530" y="190" width="260" height="90" as="geometry" />
        </mxCell>
        <mxCell id="LlVcsMAfbAlEh-ZR9LT1-137" value="&lt;font style=&quot;font-size: 24px;&quot;&gt;Kamaji &lt;br&gt;Tenant CP&lt;/font&gt;" style="ellipse;shape=umlEntity;whiteSpace=wrap;html=1;" vertex="1" parent="LlVcsMAfbAlEh-ZR9LT1-113">
          <mxGeometry x="20" y="750" width="130" height="130" as="geometry" />
        </mxCell>
        <mxCell id="LlVcsMAfbAlEh-ZR9LT1-157" value="&lt;font style=&quot;font-size: 24px;&quot;&gt;Kamaji &lt;br&gt;Tenant CP&lt;/font&gt;" style="ellipse;shape=umlEntity;whiteSpace=wrap;html=1;" vertex="1" parent="LlVcsMAfbAlEh-ZR9LT1-113">
          <mxGeometry x="660" y="730" width="130" height="130" as="geometry" />
        </mxCell>
        <mxCell id="LlVcsMAfbAlEh-ZR9LT1-131" style="edgeStyle=orthogonalEdgeStyle;rounded=0;orthogonalLoop=1;jettySize=auto;html=1;" edge="1" parent="LlVcsMAfbAlEh-ZR9LT1-108" source="LlVcsMAfbAlEh-ZR9LT1-127" target="LlVcsMAfbAlEh-ZR9LT1-119">
          <mxGeometry relative="1" as="geometry">
            <Array as="points">
              <mxPoint x="165" y="720" />
              <mxPoint x="155" y="720" />
            </Array>
          </mxGeometry>
        </mxCell>
        <mxCell id="LlVcsMAfbAlEh-ZR9LT1-127" value="&lt;font style=&quot;font-size: 24px;&quot;&gt;BareMetal Node&lt;/font&gt;" style="rounded=1;whiteSpace=wrap;html=1;" vertex="1" parent="LlVcsMAfbAlEh-ZR9LT1-108">
          <mxGeometry x="120" y="1000" width="190" height="130" as="geometry" />
        </mxCell>
        <mxCell id="LlVcsMAfbAlEh-ZR9LT1-130" style="edgeStyle=orthogonalEdgeStyle;rounded=0;orthogonalLoop=1;jettySize=auto;html=1;" edge="1" parent="LlVcsMAfbAlEh-ZR9LT1-108" source="LlVcsMAfbAlEh-ZR9LT1-110" target="LlVcsMAfbAlEh-ZR9LT1-120">
          <mxGeometry relative="1" as="geometry" />
        </mxCell>
        <mxCell id="LlVcsMAfbAlEh-ZR9LT1-132" style="edgeStyle=orthogonalEdgeStyle;rounded=0;orthogonalLoop=1;jettySize=auto;html=1;" edge="1" parent="LlVcsMAfbAlEh-ZR9LT1-108" source="LlVcsMAfbAlEh-ZR9LT1-114" target="LlVcsMAfbAlEh-ZR9LT1-127">
          <mxGeometry relative="1" as="geometry">
            <Array as="points">
              <mxPoint x="330" y="885" />
            </Array>
          </mxGeometry>
        </mxCell>
        <mxCell id="LlVcsMAfbAlEh-ZR9LT1-135" style="edgeStyle=orthogonalEdgeStyle;rounded=0;orthogonalLoop=1;jettySize=auto;html=1;" edge="1" parent="LlVcsMAfbAlEh-ZR9LT1-108" source="LlVcsMAfbAlEh-ZR9LT1-114" target="LlVcsMAfbAlEh-ZR9LT1-110">
          <mxGeometry relative="1" as="geometry">
            <Array as="points">
              <mxPoint x="340" y="910" />
            </Array>
          </mxGeometry>
        </mxCell>
      </root>
    </mxGraphModel>
  </diagram>
</mxfile>
